<?xml version="1.0" standalone="no"?>
<!DOCTYPE svg PUBLIC "-//W3C//DTD SVG 1.1//EN" "http://www.w3.org/Graphics/SVG/1.1/DTD/svg11.dtd" >
<!--
2013-9-30: Created.
-->
<svg>
<metadata>
Created by iconfont
</metadata>
<defs>

<font id="iconfont" horiz-adv-x="1024" >
  <font-face
    font-family="iconfont"
    font-weight="500"
    font-stretch="normal"
    units-per-em="1024"
    ascent="896"
    descent="-128"
  />
    <missing-glyph />
    
    <glyph glyph-name="tixing" unicode="&#58897;" d="M3479.16746479-126.82752000000005l-2447.020998 1e-8c-65.425217 0-148.84728 30.806829-188.377472 70.76925899l-751.977403 760.779355c-99.886427 101.06526-94.974624 190.106426 19.607917 190.106426L4399.87512879 894.82752c114.62183699 0 119.53364-89.041166 19.647212-190.106426L3667.50564279-56.058261000000016C3628.01474579-96.02069100000006 3544.55338779-126.82751999000004 3479.16746479-126.82752000000005z"  horiz-adv-x="4490" />

    
    <glyph glyph-name="add" unicode="&#59314;" d="M512 768a48 48 0 0 0 48-48v-288h288a48 48 0 1 0 0-96h-288v-288a48 48 0 1 0-96 0v288h-288a48 48 0 0 0 0 96h288v288A48 48 0 0 0 512 768z"  horiz-adv-x="1024" />

    
    <glyph glyph-name="nenglidian" unicode="&#58989;" d="M512 192.426667a170.666667 170.666667 0 0 0-162.133333 102.4L232.96 569.6a139.52 139.52 0 0 0 12.373333 133.12 161.706667 161.706667 0 0 0 136.106667 70.826667h261.546667a160.426667 160.426667 0 0 0 135.68-70.826667 137.386667 137.386667 0 0 0 12.373333-133.12l-116.906667-274.346667a170.666667 170.666667 0 0 0-162.133333-102.826666z m-85.333333 136.106666a89.173333 89.173333 0 0 1 85.333333-50.773333 88.32 88.32 0 0 1 85.333333 50.773333l115.2 274.773334a55.04 55.04 0 0 1-4.693333 52.48 76.8 76.8 0 0 1-64.853333 32.426666H381.44a76.373333 76.373333 0 0 1-64.853333-32.426666 53.76 53.76 0 0 1-5.12-52.48zM423.253333 341.333333H242.346667a132.266667 132.266667 0 0 0-132.266667 132.266667V625.066667h192.426667zM195.413333 539.733333V473.6a46.933333 46.933333 0 0 1 46.933334-46.933333h51.626666L245.76 539.733333zM781.653333 341.333333h-180.906666l120.746666 283.733334h192.426667V473.6a132.266667 132.266667 0 0 0-132.266667-132.266667z m-51.626666 85.333334h51.626666a46.933333 46.933333 0 0 1 46.933334 46.933333V539.733333h-50.346667zM597.333333-5.546667h-170.666666a121.6 121.6 0 0 0-110.933334 53.333334 67.413333 67.413333 0 0 0 5.12 71.253333l75.946667 110.08a136.533333 136.533333 0 0 0 115.2 48.64 137.813333 137.813333 0 0 0 115.2-48.64l75.946667-110.08a68.266667 68.266667 0 0 0 4.693333-71.253333A120.746667 120.746667 0 0 0 597.333333-5.546667zM400.64 85.333333a70.826667 70.826667 0 0 1 26.453333-4.266666h170.666667a72.533333 72.533333 0 0 1 26.453333 4.266666l-66.986666 96.426667a65.28 65.28 0 0 1-45.226667 10.666667 67.413333 67.413333 0 0 1-44.8-11.946667z"  horiz-adv-x="1024" />

    
    <glyph glyph-name="zhishidian" unicode="&#59081;" d="M512 409.6c-12.8 0-32.256 0-45.056 6.656l-409.6 115.2C19.456 543.744 0 576 0 607.744s19.456 64 51.2 76.8l416.256 115.2c25.6 6.656 64 12.8 89.6 0l409.6-115.2c38.4-12.8 57.856-45.056 57.856-76.8s-19.456-64-51.2-76.8l-416.256-115.2c-12.8-6.144-32.256-6.144-45.056-6.144zM723.456 31.744H300.544c-76.8 0-140.8 64-140.8 140.8V415.744c0 12.8 6.656 19.456 12.8 25.6s19.456 6.656 25.6 6.656l307.2-89.6c12.8-6.656 25.6-6.656 38.4 0L819.2 448c12.8 0 19.456 0 25.6-6.656s12.8-12.8 12.8-25.6v-243.2c6.656-76.8-57.344-140.8-134.144-140.8zM960 64c-19.456 0-32.256 12.8-32.256 32.256v384c0 19.456 12.8 32.256 32.256 32.256s32.256-12.8 32.256-32.256v-384c0-19.456-12.8-32.256-32.256-32.256zM908.8-12.8c0-28.16 23.04-51.2 51.2-51.2s51.2 23.04 51.2 51.2-23.04 51.2-51.2 51.2-51.2-23.04-51.2-51.2z"  horiz-adv-x="1024" />

    
    <glyph glyph-name="jianhao" unicode="&#58930;" d="M512 0c-211.968 0-384 172.032-384 384s172.032 384 384 384c211.968 0 384-172.032 384-384S723.968 0 512 0zM512 719.872c-185.344 0-335.872-150.528-335.872-335.872s150.528-335.872 335.872-335.872 335.872 150.528 335.872 335.872S697.344 719.872 512 719.872zM295.936 384 295.936 384c0 13.312 10.752 24.064 24.064 24.064l384 0c13.312 0 24.064-10.752 24.064-24.064l0 0c0-13.312-10.752-24.064-24.064-24.064l-384 0C306.688 359.936 295.936 370.688 295.936 384z"  horiz-adv-x="1024" />

    
    <glyph glyph-name="huabi" unicode="&#58992;" d="M896 64V0H213.333333v64h682.666667zM687.104 787.498667l143.061333-143.061334a21.333333 21.333333 0 0 0 0-30.208L395.946667 180.053333a32 32 0 0 0-22.613334-9.386666H234.666667a21.333333 21.333333 0 0 0-21.333334 21.333333v138.666667a32 32 0 0 0 9.386667 22.613333L656.896 787.498667a21.333333 21.333333 0 0 0 30.208 0zM672 712.106667L277.333333 317.44V234.666667h82.773334l394.666666 394.666666-82.773333 82.773334z"  horiz-adv-x="1024" />

    
    <glyph glyph-name="tishi" unicode="&#59367;" d="M481.477846 186.498834 481.477846 451.533093c0 17.165961 13.696953 31.081902 30.595832 31.081902 16.888645 0 30.3134-8.549723 30.3134-32.168654s0.274246-263.947508 0.274246-263.947508c0-17.149589-13.697977-31.081902-30.586622-31.081902C495.173776 155.415908 481.477846 169.348222 481.477846 186.498834L481.477846 186.498834zM548.44505 572.993398c0-20.446681-16.311501-37.028335-36.44505-37.028335-20.12741 0-36.446074 16.58063-36.446074 37.028335 0 20.449751 16.318664 37.031405 36.446074 37.031405C532.133549 610.025826 548.44505 593.44315 548.44505 572.993398zM511.564072-63.919543c-60.457954 0-119.120005 11.845793-174.358073 35.20992-53.340859 22.561855-101.240799 54.854329-142.368498 95.983051-41.127699 41.126676-73.421196 89.027639-95.982028 142.368498-23.364127 55.237045-35.20992 113.901143-35.20992 174.358073s11.846816 119.120005 35.20992 174.358073c22.560832 53.340859 54.854329 101.240799 95.982028 142.368498 41.128723 41.127699 89.027639 73.421196 142.368498 95.982028 55.238069 23.364127 113.901143 35.20992 174.358073 35.20992 60.457954 0 119.120005-11.846816 174.359097-35.20992 53.340859-22.560832 101.240799-54.854329 142.369521-95.982028 41.126676-41.127699 73.420173-89.027639 95.982028-142.368498 23.364127-55.238069 35.20992-113.901143 35.20992-174.358073s-11.845793-119.121028-35.20992-174.358073c-22.561855-53.340859-54.854329-101.241822-95.982028-142.368498-41.128723-41.127699-89.028663-73.42222-142.369521-95.983051C630.684076-52.07375 572.022025-63.919543 511.564072-63.919543zM511.564072 781.778562c-219.335451 0-397.777539-178.442088-397.777539-397.777539 0-219.335451 178.442088-397.777539 397.777539-397.777539 219.336474 0 397.778562 178.442088 397.778562 397.777539C909.342634 603.335451 730.900545 781.778562 511.564072 781.778562z"  horiz-adv-x="1024" />

    
    <glyph glyph-name="tuichudenglu" unicode="&#58883;" d="M691.2 162.91c-18.618 0-32.582-13.965-32.582-32.583v-72.145c0-25.6-23.273-44.218-51.2-44.218H116.364c-27.928 0-51.2 20.945-51.2 44.218V707.49c0 25.6 23.272 44.218 51.2 44.218h493.381c27.928 0 51.2-20.945 51.2-44.218v-81.455c0-18.618 13.964-32.581 32.582-32.581 18.618 0 32.582 13.963 32.582 32.581v81.455c0 60.509-51.2 109.382-116.364 109.382H116.364C53.527 816.873 0 768 0 707.49v-646.982C0 0 51.2-48.873 116.364-48.873h493.381c62.837 0 116.364 48.873 116.364 109.382v72.146c-2.327 16.29-16.29 30.254-34.909 30.254zM1010.036 421.236L833.164 598.11c-11.637 11.636-32.582 11.636-44.219 0-6.981-6.982-9.309-13.964-9.309-23.273s2.328-16.29 9.31-23.272L914.617 425.89H381.673c-18.618 0-32.582-13.964-32.582-32.582 0-18.618 13.964-32.582 32.582-32.582h532.945L788.945 235.055c-6.981-6.982-9.309-13.964-9.309-23.273s2.328-16.291 9.31-23.273c6.981-6.982 13.963-9.309 23.272-9.309s16.291 2.327 23.273 9.31l179.2 179.2v2.326c4.654 4.655 4.654 11.637 4.654 18.619 4.655 18.618 0 27.927-9.309 32.581z"  horiz-adv-x="1024" />

    
    <glyph glyph-name="gerenzhongxin-zhong" unicode="&#58884;" d="M952.832-15.871999999999957s-25.6-45.056-84.992-45.056h-716.8c-33.28 0-61.44 17.92-77.312 45.056 0 0-12.288 12.8-12.288 45.056V51.200000000000045h1.536c11.776 135.68 131.072 248.832 294.4 293.376C287.232 393.216 240.64 474.112 240.64 566.2719999999999c0 148.48 120.32 268.8 268.8 268.8S778.24 714.752 778.24 566.2719999999999c0-92.16-46.592-173.056-117.248-221.696 163.328-44.032 282.624-157.696 294.4-293.376h1.536v-22.528c0-14.848-1.536-29.696-4.096-44.544z"  horiz-adv-x="1024" />

    
    <glyph glyph-name="touxiang1" unicode="&#58896;" d="M512 896C229.180952 896 0 666.8190480000001 0 384s229.180952-512 512-512 512 229.180952 512 512S794.819048 896 512 896z m0-182.85714299c87.77142901 0 158.47619001-70.70476199 158.47619001-158.47619001s-70.70476199-158.47619001-158.47619001-158.476191-158.47619001 70.70476199-158.47619001 158.476191 70.70476199 158.47619001 158.47619001 158.47619001z m0-658.285714c-162.133333 0-292.57142901 70.70476199-292.57142901 158.47618999s130.438095 158.47619001 292.57142901 158.476191 292.57142901-70.70476199 292.57142901-158.476191-130.438095-158.47619001-292.57142901-158.47618999z"  horiz-adv-x="1024" />

    
    <glyph glyph-name="touxiang2" unicode="&#58951;" d="M512.018432 384m-512 0a512 512 0 1 1 1024 0 512 512 0 1 1-1024 0ZM0.018432 384c0-282.7264 229.205333-511.931733 512-511.931733 282.7264 0 511.931733 229.205333 511.931733 511.965866S794.744832 896 512.018432 896 0.018432 666.794667 0.018432 384z m827.665067-398.062933c-27.716267 35.703467-65.604267 54.408533-104.891734 71.031466-26.146133 11.093333-52.6336 21.6064-78.062933 34.235734-28.842667 14.336-48.196267 34.952533-45.4656 71.2704 1.774933 23.893333-2.389333 47.9232 16.725333 67.7888 6.7584 7.0656 10.171733 17.851733 13.550934 27.477333 6.690133 18.875733 12.561067 36.352 27.511466 52.565333 17.271467 18.773333 20.7872 45.568 6.007467 71.099734-3.037867 5.2224-2.3552 13.824-0.785067 20.241066 10.683733 43.8272 17.954133 87.8592 8.533334 132.881067-7.9872 38.229333-29.559467 64.2048-68.608 74.001067-4.437333 1.1264-9.659733 2.901333-12.526934 6.144-16.964267 19.3536-40.1408 27.2384-63.5904 26.146133-32.187733-1.536-65.706667-4.437333-95.778133-14.984533-50.176-17.6128-74.786133-59.562667-76.868267-110.967467-1.536-37.649067 5.461333-75.605333 7.953067-113.4592 0.477867-7.748267-0.341333-16.657067-3.7888-23.381333-11.3664-22.254933-4.096-60.859733 14.6432-77.0048 5.802667-5.0176 9.728-12.629333 13.312-19.694934 11.434667-22.4256 22.4256-45.090133 33.314133-67.7888 2.491733-5.188267 5.256533-10.820267 5.666134-16.384 0.8192-11.4688-0.512-23.04 0.170666-34.474666 1.979733-33.1776-13.482667-56.0128-42.257066-69.700267-32.221867-15.291733-65.194667-28.8768-97.860267-43.2128-40.823467-17.92-60.2112-31.6416-89.565867-63.317333C64.871765 78.4384-32.101035 273.885867 9.917099 484.420267A510.805333 510.805333 0 0 0 483.960832 895.2832c231.901867 12.322133 442.1632-132.983467 513.911467-357.2736 68.266667-213.538133-16.213333-435.643733-170.1888-552.072533z"  horiz-adv-x="1024" />

    
    <glyph glyph-name="touxiang" unicode="&#58882;" d="M517.075-106.04399999999998a484.977 484.977 0 1 1-484.977 484.97 485 485 0 0 1 484.977-484.97zM512-128a512 512 0 1 0 512 512 512 512 0 0 0-512-512z m0 50.048A461.952 461.952 0 1 1 50.048 384 461.944 461.944 0 0 1 512-77.952zM155.67 73.86400000000003c34.952 94.584 149.512 209.731 252.575 209.731H615.77c103.093 0 208.128-127.119 243.08-221.74-86.686-89.322-222.667-160.957-346.842-160.791-124.176-0.166-269.651 83.448-356.337 172.77z m356.338 256.045a185.36 185.36 0 1 0 184.47 185.359A184.93 184.93 0 0 0 512 329.908z"  horiz-adv-x="1024" />

    
    <glyph glyph-name="shijuanguanli" unicode="&#58881;" d="M582.217143-27.062857H166.4A100.571429 100.571429 0 0 0 65.828571 73.142857V729.6A100.571429 100.571429 0 0 0 166.4 830.171429h658.285714a100.571429 100.571429 0 0 0 100.205715-100.571429v-407.04a24.502857 24.502857 0 1 0-49.005715 0V729.6a51.2 51.2 0 0 1-51.2 51.2h-658.285714a51.2 51.2 0 0 1-51.2-51.2v-658.285714a51.2 51.2 0 0 1 51.2-51.2h415.817143a24.502857 24.502857 0 0 0 0-49.005715zM751.542857 467.748571H376.685714a24.502857 24.502857 0 0 0 0 49.005715h374.857143a24.502857 24.502857 0 1 0 0-49.005715zM292.571429 467.748571H237.348571a24.502857 24.502857 0 0 0 0 49.005715H292.571429a24.502857 24.502857 0 1 0 0-49.005715zM751.542857 608.182857H376.685714a24.868571 24.868571 0 0 0 0 49.371429h374.857143a24.868571 24.868571 0 1 0 0-49.371429zM292.571429 608.182857H237.348571a24.868571 24.868571 0 0 0 0 49.371429H292.571429a24.868571 24.868571 0 1 0 0-49.371429zM977.92 144.091429c-2.194286 11.337143-8.777143 18.651429-17.92 18.651428A43.52 43.52 0 0 0 914.285714 206.262857a54.125714 54.125714 0 0 0 3.657143 16.457143 23.04 23.04 0 0 1-7.68 28.525714L866.011429 274.285714a26.331429 26.331429 0 0 1-28.16-5.485714 66.56 66.56 0 0 0-34.377143-19.382857 64.365714 64.365714 0 0 0-34.742857 19.748571 25.965714 25.965714 0 0 1-27.794286 5.851429l-46.811429-25.6a23.405714 23.405714 0 0 1-8.045714-28.525714 41.691429 41.691429 0 0 0 4.022857-16.457143 43.52 43.52 0 0 0-43.52-43.52h-1.828571c-8.777143 0-15.725714-7.314286-17.92-18.651429a264.411429 264.411429 0 0 1-3.657143-36.571428 186.148571 186.148571 0 0 1 4.022857-36.571429c2.194286-11.337143 8.777143-18.651429 17.92-18.651429a43.52 43.52 0 0 0 43.52-43.52 46.811429 46.811429 0 0 0-4.022857-16.822857 23.04 23.04 0 0 1 8.045714-28.16l44.251429-24.868571a26.331429 26.331429 0 0 1 28.16 5.851428 63.268571 63.268571 0 0 0 36.571428 20.48 64 64 0 0 0 36.571429-20.845714 25.234286 25.234286 0 0 1 28.16-6.217143l45.714286 25.234286a23.405714 23.405714 0 0 1 8.045714 28.525714 41.691429 41.691429 0 0 0-5.851429 20.845715 43.52 43.52 0 0 0 43.885715 43.885714h1.828571c8.411429 0 15.725714 7.314286 17.92 18.651428a197.12 197.12 0 0 1 4.022857 36.571429 197.12 197.12 0 0 1-4.022857 36.571429m-32.182857-36.571429a193.097143 193.097143 0 0 0-2.56-25.965714 65.462857 65.462857 0 0 1-59.977143-65.828572 60.342857 60.342857 0 0 1 4.754286-22.674285l-36.571429-20.48a155.428571 155.428571 0 0 1-14.262857 12.8 53.028571 53.028571 0 0 1-73.142857 0c-7.314286-5.485714-12.434286-10.605714-14.628572-12.434286l-36.571428 19.748571a64.365714 64.365714 0 0 1 4.754286 23.04 65.462857 65.462857 0 0 1-59.977143 65.097143c0 4.754286-2.56 16.457143-2.56 25.6a182.857143 182.857143 0 0 0 2.925714 26.331429 64.731429 64.731429 0 0 1 62.171429 65.828571 73.142857 73.142857 0 0 1-4.388572 23.04l36.571429 20.845714a105.691429 105.691429 0 0 1 14.262857-12.068571 53.394286 53.394286 0 0 1 70.582857 0 161.645714 161.645714 0 0 1 14.262857 11.702857l36.571429-20.114286a62.537143 62.537143 0 0 1-4.754286-23.04 64.731429 64.731429 0 0 1 59.977143-64.731428c0-4.754286 2.194286-16.822857 2.194286-26.331429M800.914286 172.982857a64 64 0 1 1 64-64 64 64 0 0 1-64 64m32.182857-64a32.182857 32.182857 0 1 0-31.817143 32.182857 31.817143 31.817143 0 0 0 31.817143-32.182857M551.497143 166.765714H278.308571a65.462857 65.462857 0 0 0-65.462857 65.462857v93.622858a65.828571 65.828571 0 0 0 65.462857 65.828571h273.188572a65.828571 65.828571 0 0 0 65.462857-65.828571v-93.622858a65.462857 65.462857 0 0 0-65.462857-65.462857z m-273.188572 175.542857a16.457143 16.457143 0 0 1-16.457142-16.457142v-93.622858a16.822857 16.822857 0 0 1 16.457142-16.457142h273.188572a16.457143 16.457143 0 0 1 16.457143 16.457142v93.622858a16.457143 16.457143 0 0 1-16.457143 16.457142z"  horiz-adv-x="1024" />

    
    <glyph glyph-name="zujuan" unicode="&#59030;" d="M203.76-116.747H72.947c-39.385 0-70.33 43.604-70.33 97.055V798.945C2.617 852.395 33.562 896 72.947 896H203.76c39.385 0 71.174-43.604 71.174-97.055v-818.637c0-53.45-31.79-97.055-71.174-97.055zM72.947 839.736c-12.94 0-23.63-14.91-23.63-32.914v-834.391c0-18.286 10.69-32.915 23.63-32.915H203.76c12.94 0 23.63 14.91 23.63 32.915V806.822c0.282 18.004-10.408 32.914-23.63 32.914zM30.75 670.945h226.46v-50.637H30.75z m281.318 0h226.461v-50.637H312.068zM500.833-116.747H369.738c-39.103 0-71.173 43.604-71.173 97.055V798.945C298.565 852.395 330.354 896 369.738 896h131.095c39.103 0 71.173-43.604 71.173-97.055v-818.637c0-53.45-32.07-97.055-71.173-97.055zM369.738 839.736c-12.94 0-23.63-14.91-23.63-32.914v-834.391c0-18.286 10.69-32.915 23.63-32.915h131.095c12.94 0 23.63 14.91 23.63 32.915V806.822c0 18.286-10.69 32.914-23.63 32.914zM599.07 623.993l225.674 46.418 10.127-49.316-225.645-46.417zM973.167-91.429l-128.563-34.602c-38.54-10.409-81.02 22.787-94.804 73.987L537.123 731.71c-13.785 51.2 6.189 101.275 44.73 112.527l129.969 33.759c38.54 10.408 81.02-22.787 94.804-73.987l211.27-783.754c13.785-52.607-6.47-101.275-44.73-111.684z m-375.56 880.81a28.132 28.132 0 0 1-14.63-37.697l215.21-798.664c4.782-17.442 18.848-28.132 31.788-25.319l129.126 34.602A28.132 28.132 0 0 1 973.729 0L757.958 798.945c-4.783 17.442-18.848 28.132-31.79 25.319z"  horiz-adv-x="1024" />

    
    <glyph glyph-name="shitilan" unicode="&#58901;" d="M1202.005333 490.154667h-148.138666V667.409067a52.292267 52.292267 0 0 1-12.629334 35.089066 42.325333 42.325333 0 0 1-31.232 14.848H577.979733L417.109333 892.586667A10.513067 10.513067 0 0 1 409.6 896H61.0304C49.220267 895.863467 37.956267 890.538667 29.696 881.152A52.394667 52.394667 0 0 1 17.066667 846.062933v-924.125866c0-27.648 19.626667-49.937067 43.9296-49.937067H1018.197333c18.0224 0.1024 34.167467 12.458667 40.721067 31.163733l183.739733 518.314667c2.116267 5.973333 3.1744 12.288 3.1744 18.705067a52.3264 52.3264 0 0 1-12.629333 35.089066 42.325333 42.325333 0 0 1-31.232 14.848z m-246.852266 0H255.658667c-18.0224-0.170667-34.133333-12.526933-40.721067-31.197867L115.882667 179.2V783.701333h258.423466l164.0448-178.619733h416.768v-114.926933z"  horiz-adv-x="1262" />

    
    <glyph glyph-name="zuocedaohang_zhankai" unicode="&#58893;" d="M908.133927 733.108365h-792.264394c-25.795298 0-46.705543 20.910245-46.705543 46.705543s20.910245 46.705543 46.705543 46.705543h792.264394c25.795298 0 46.705543-20.910245 46.705543-46.705543s-20.910245-46.705543-46.705543-46.705543zM908.133927-58.204621h-792.264394c-25.795298 0-46.705543 20.910245-46.705543 46.705543s20.910245 46.705543 46.705543 46.705543h792.264394c25.795298 0 46.705543-20.910245 46.705543-46.705543s-20.910245-46.705543-46.705543-46.705543zM210.844389 461.773378h297.943308c25.795298 0 46.705543 20.910245 46.705542 46.705543s-20.910245 46.705543-46.705542 46.705543h-297.943308c-25.795298 0-46.705543-20.910245-46.705543-46.705543s20.910245-46.705543 46.705543-46.705543zM210.844389 212.940084h297.943308c25.795298 0 46.705543 20.910245 46.705542 46.705543s-20.910245 46.705543-46.705542 46.705543h-297.943308c-25.795298 0-46.705543-20.910245-46.705543-46.705543s20.910245-46.705543 46.705543-46.705543zM751.109892 550.344386l141.341352-141.341352a33.119419 33.119419 0 0 0 0-46.84047l-141.341352-141.341352c-20.865269-20.865269-56.541384-6.089019-56.541384 23.418505v282.679244c0 29.514443 35.676115 44.290693 56.541384 23.425425z"  horiz-adv-x="1024" />

    
    <glyph glyph-name="cedaohangzhankai" unicode="&#58935;" d="M206.592 123.584c-27.776 0-52.16-20.48-52.992-47.36a49.728 49.728 0 0 1 50.496-50.624h715.712c27.776 0 52.16 20.48 52.992 47.36a49.728 49.728 0 0 1-50.496 50.624H206.592z m-123.776 461.44C70.592 592.704 51.2 590.592 51.2 559.872V257.92c0-27.328 22.464-32.512 34.304-23.36l213.12 157.824c11.072 9.088 11.776 24.448 0 32.896l-213.12 157.824zM420.992 344.32c-25.984 0-47.04-22.08-47.04-49.088 0-26.944 21.056-49.024 47.04-49.024h504.768c25.984 0 47.04 22.08 47.04 49.024 0 27.008-21.056 49.088-47.04 49.088H420.992z m0 228.8c-25.984 0-47.04-22.08-47.04-49.088 0-26.944 21.056-49.024 47.04-49.024h504.768c25.984 0 47.04 22.08 47.04 49.024 0 27.008-21.056 49.088-47.04 49.088H420.992zM206.592 793.6c-27.776 0-52.16-20.48-52.992-47.36a49.728 49.728 0 0 1 50.496-50.624h715.712c27.776 0 52.16 20.48 52.992 47.36a49.728 49.728 0 0 1-50.496 50.624H206.592z"  horiz-adv-x="1024" />

    
    <glyph glyph-name="liebiaozhankaimoren" unicode="&#58916;" d="M170.666667 725.333333h682.666666a42.666667 42.666667 0 0 0 0-85.333333H170.666667a42.666667 42.666667 0 1 0 0 85.333333z m0-597.333333h682.666666a42.666667 42.666667 0 1 0 0-85.333333H170.666667a42.666667 42.666667 0 0 0 0 85.333333z m256 199.253333h426.666666a42.666667 42.666667 0 1 0 0-85.333333H426.666667a42.666667 42.666667 0 0 0 0 85.333333z m0 198.826667h426.666666a42.666667 42.666667 0 0 0 0-85.333333H426.666667a42.666667 42.666667 0 0 0 0 85.333333z m-296.405334-13.482667l-4.48-255.957333L298.666667 381.653333l-168.405334 130.986667z"  horiz-adv-x="1024" />

    
    <glyph glyph-name="icon_fold" unicode="&#58895;" d="M828.952381 384l190.171429-146.285714v292.571428l-190.171429-146.285714zM1024 208.457143l-19.504762 14.628571-199.923809 151.161905-14.628572 19.504762 19.504762 14.628571 204.8 146.285715h34.133333v-321.828572l-24.380952-24.380952z m-156.038095 175.542857l131.657143-97.52381v195.04762l-131.657143-97.52381zM999.619048 774.095238h-926.476191c-29.257143 0-48.761905 19.504762-48.761905 48.761905s19.504762 48.761905 48.761905 48.761905h926.476191c29.257143 0 48.761905-19.504762 48.761904-48.761905s-19.504762-48.761905-48.761904-48.761905zM682.666667 481.52381H73.142857c-29.257143 0-48.761905 19.504762-48.761905 48.761904s19.504762 48.761905 48.761905 48.761905H682.666667c29.257143 0 48.761905-19.504762 48.761904-48.761905s-19.504762-48.761905-48.761904-48.761904zM682.666667 188.952381H73.142857c-29.257143 0-48.761905 19.504762-48.761905 48.761905s19.504762 48.761905 48.761905 48.761904H682.666667c29.257143 0 48.761905-19.504762 48.761904-48.761904s-19.504762-48.761905-48.761904-48.761905zM999.619048-103.619048h-926.476191c-29.257143 0-48.761905 19.504762-48.761905 48.761905s19.504762 48.761905 48.761905 48.761905h926.476191c29.257143 0 48.761905-19.504762 48.761904-48.761905s-19.504762-48.761905-48.761904-48.761905z"  horiz-adv-x="1072" />

    
    <glyph glyph-name="fenxiang" unicode="&#58880;" d="M395.21518 382.395456l323.135538 312.373427c19.052938 18.416442 19.052938 48.273447 0 66.660212-19.053961 18.416442-49.910737 18.416442-68.964698 0L291.75176 415.709189c-19.052938-18.416442-19.052938-48.273447 0-66.660212l357.633237-345.688183c9.525957-9.207709 22.01234-13.796214 34.497699-13.796214 12.485359 0 24.971741 4.588505 34.466999 13.82896 19.052938 18.416442 19.052938 48.242747 0 66.660212L395.21518 382.395456z"  horiz-adv-x="1024" />

    
    <glyph glyph-name="switch" unicode="&#58885;" d="M512.46464 704a320.170667 320.170667 0 0 1-302.250667-214.570667 64 64 0 1 0-120.832 42.197334C150.35264 706.432 316.62464 832 512.46464 832c152.618667 0 287.274667-76.288 368.170667-192.682667l18.517333 61.738667a64 64 0 1 0 122.624-36.778667l-64-213.333333a64 64 0 0 0-73.856-44.373333l-213.333333 42.666666a64 64 0 0 0 25.088 125.525334l85.632-17.152A319.786667 319.786667 0 0 1 512.46464 704zM243.579307 210.346667l85.674666-17.066667a64 64 0 0 1 25.088 125.44l-213.333333 42.666667a64 64 0 0 1-73.813333-44.330667l-64-213.333333a64 64 0 1 1 122.581333-36.778667l18.517333 61.781333A447.445333 447.445333 0 0 1 512.46464-64c195.157333 0 361.002667 124.757333 422.485333 298.666667a64 64 0 0 1-120.704 42.666666 320.170667 320.170667 0 0 0-570.666666-66.986666z"  horiz-adv-x="1024" />

    
    <glyph glyph-name="icon_xinyong_xianxing_jijin-" unicode="&#58943;" d="M417.28-122.88c-2.56 0-5.12 0-7.68 1.28-12.8 3.84-20.48 19.2-16.64 32 39.68 117.76 99.84 225.28 181.76 318.72 28.16 32 58.88 62.72 90.88 90.88 93.44 81.92 200.96 143.36 318.72 181.76 12.8 3.84 28.16-2.56 32-16.64 3.84-12.8-2.56-28.16-16.64-32C888.32 416 787.2 358.4 698.88 281.6c-29.44-25.6-58.88-55.04-84.48-85.76-76.8-88.32-135.68-189.44-171.52-300.8-5.12-10.24-14.08-17.92-25.6-17.92zM30.72 263.68c-10.24 0-20.48 6.4-24.32 17.92-3.84 12.8 2.56 28.16 16.64 32 111.36 37.12 212.48 94.72 300.8 171.52 30.72 26.88 60.16 55.04 87.04 87.04 76.8 88.32 135.68 189.44 171.52 300.8C586.24 885.76 601.6 893.44 614.4 889.6 627.2 885.76 634.88 870.4 631.04 857.6c-39.68-117.76-99.84-225.28-181.76-318.72-28.16-32-58.88-62.72-90.88-90.88-93.44-81.92-200.96-143.36-318.72-181.76-3.84-1.28-6.4-2.56-8.96-2.56zM358.4-128C161.28-128 0 33.28 0 230.4c0 21.76 1.28 42.24 6.4 64 2.56 14.08 15.36 23.04 29.44 20.48 14.08-2.56 23.04-15.36 20.48-29.44-3.84-17.92-5.12-37.12-5.12-55.04 0-168.96 138.24-307.2 307.2-307.2 17.92 0 35.84 1.28 53.76 5.12 14.08 2.56 26.88-6.4 29.44-20.48 2.56-14.08-6.4-26.88-20.48-29.44-19.2-3.84-40.96-6.4-62.72-6.4zM993.28 453.12h-5.12c-14.08 2.56-23.04 15.36-20.48 29.44 3.84 17.92 5.12 35.84 5.12 55.04C972.8 706.56 834.56 844.8 665.6 844.8c-17.92 0-37.12-1.28-55.04-5.12-14.08-2.56-26.88 6.4-29.44 20.48-2.56 14.08 6.4 26.88 20.48 29.44 20.48 3.84 42.24 6.4 64 6.4h1.28c197.12 0 358.4-161.28 358.4-358.4 0-21.76-1.28-42.24-6.4-64-2.56-11.52-14.08-20.48-25.6-20.48zM417.28-122.88h-5.12c-14.08 2.56-23.04 15.36-20.48 29.44 3.84 17.92 5.12 35.84 5.12 53.76 0 168.96-138.24 307.2-307.2 307.2-17.92 0-35.84-1.28-53.76-5.12-14.08-2.56-26.88 6.4-29.44 20.48-2.56 14.08 6.4 26.88 20.48 29.44 20.48 6.4 40.96 7.68 62.72 7.68 197.12 0 358.4-161.28 358.4-358.4 0-21.76-1.28-42.24-5.12-62.72-2.56-12.8-14.08-21.76-25.6-21.76zM606.72 199.68c-11.52 0-21.76 7.68-25.6 20.48-25.6 116.48-117.76 207.36-232.96 232.96-14.08 2.56-23.04 16.64-19.2 30.72 2.56 14.08 16.64 23.04 30.72 19.2C494.08 473.6 601.6 366.08 631.04 231.68c2.56-14.08-5.12-26.88-19.2-30.72-1.28 0-3.84-1.28-5.12-1.28zM723.2 308.48c-11.52 0-23.04 8.96-25.6 20.48-24.32 121.6-119.04 216.32-240.64 240.64-14.08 2.56-23.04 16.64-20.48 30.72 2.56 14.08 16.64 23.04 30.72 20.48 142.08-28.16 253.44-138.24 281.6-281.6 2.56-14.08-6.4-26.88-20.48-30.72h-5.12zM239.36 12.8C107.52 12.8 0 120.32 0 250.88c0 14.08 1.28 29.44 3.84 43.52 2.56 14.08 15.36 23.04 29.44 20.48 14.08-2.56 23.04-15.36 20.48-29.44-1.28-11.52-2.56-23.04-2.56-34.56 0-102.4 84.48-186.88 188.16-186.88 8.96 0 16.64 0 24.32 1.28l81.92 99.84c8.96 11.52 25.6 12.8 35.84 3.84 11.52-8.96 12.8-25.6 3.84-35.84L296.96 25.6c-3.84-5.12-8.96-7.68-15.36-8.96-14.08-2.56-28.16-3.84-42.24-3.84zM675.84 67.84c-14.08 0-25.6 11.52-25.6 25.6V294.4c0 14.08 11.52 25.6 25.6 25.6h160c14.08 0 25.6-11.52 25.6-25.6s-11.52-25.6-25.6-25.6H701.44v-175.36c0-14.08-11.52-25.6-25.6-25.6z"  horiz-adv-x="1025" />

    


  </font>
</defs>
</svg>
