<?xml version="1.0" encoding="UTF-8"?>
<svg width="348px" height="280px" viewBox="0 0 174 140" version="1.1" xmlns="http://www.w3.org/2000/svg" xmlns:xlink="http://www.w3.org/1999/xlink">
    <title>5</title>
    <defs>
        <rect id="path-1" x="0" y="0" width="95.1145038" height="60.9160305" rx="1"></rect>
        <rect id="path-3" x="0" y="0" width="95.1145038" height="60.9160305" rx="1"></rect>
    </defs>
    <g id="插画" stroke="none" stroke-width="1" fill="none" fill-rule="evenodd">
        <g id="Apple-TV" transform="translate(-1198.000000, -587.000000)">
            <g id="5" transform="translate(1198.000000, 587.000000)">
                <g id="编组-26" transform="translate(100.389313, 18.167939)" fill="#000000" fill-rule="nonzero">
                    <g id="编组备份">
                        <path d="M47.560887,0 L58.4660124,10.9051254 L58.4660124,73.1548528 C58.4660124,73.7071375 58.0182971,74.1548528 57.4660124,74.1548528 L1.30534351,74.1548528 C0.753058762,74.1548528 0.305343511,73.7071375 0.305343511,73.1548528 L0.305343511,1 C0.305343511,0.44771525 0.753058762,0 1.30534351,0 L47.560887,0 Z M57.4660124,11.32 L47.146,1 L1.30534351,1 L1.30534351,73.1548528 L57.4660124,73.1548528 L57.4660124,11.32 Z" id="形状结合"></path>
                        <polygon id="路径-6" points="48.060887 0.423053458 48.06 10.405 58.0064862 10.4051254 58.0064862 11.4051254 47.060887 11.4051254 47.060887 0.423053458"></polygon>
                    </g>
                    <g id="编组-14备份" transform="translate(8.549618, 20.305344)">
                        <polygon id="直线备份-11" transform="translate(20.839695, 16.564885) scale(1, -1) translate(-20.839695, -16.564885) " points="42.1793893 16.0648855 42.1793893 17.0648855 -0.5 17.0648855 -0.5 16.0648855"></polygon>
                        <polygon id="直线备份-24" transform="translate(20.839695, 27.251908) scale(1, -1) translate(-20.839695, -27.251908) " points="42.1793893 26.7519084 42.1793893 27.7519084 -0.5 27.7519084 -0.5 26.7519084"></polygon>
                        <polygon id="直线备份-23" transform="translate(17.099237, 21.908397) scale(1, -1) translate(-17.099237, -21.908397) " points="34.6984733 21.4083969 34.6984733 22.4083969 -0.5 22.4083969 -0.5 21.4083969"></polygon>
                        <polygon id="直线备份-27" transform="translate(17.099237, 31.526718) scale(1, -1) translate(-17.099237, -31.526718) " points="34.6984733 31.0267176 34.6984733 32.0267176 -0.5 32.0267176 -0.5 31.0267176"></polygon>
                        <polygon id="直线备份-9" transform="translate(20.839695, 5.877863) scale(1, -1) translate(-20.839695, -5.877863) " points="42.1793893 5.3778626 42.1793893 6.3778626 -0.5 6.3778626 -0.5 5.3778626"></polygon>
                        <polygon id="直线备份-10" transform="translate(17.099237, 11.221374) scale(1, -1) translate(-17.099237, -11.221374) " points="34.6984733 10.721374 34.6984733 11.721374 -0.5 11.721374 -0.5 10.721374"></polygon>
                        <polygon id="直线备份-26" transform="translate(17.099237, 1.068702) scale(1, -1) translate(-17.099237, -1.068702) " points="34.6984733 0.56870229 34.6984733 1.56870229 -0.5 1.56870229 -0.5 0.56870229"></polygon>
                    </g>
                </g>
                <path d="M126.038168,33.129771 C133.120904,33.129771 138.862595,38.8714628 138.862595,45.9541985 C138.862595,53.0369342 133.120904,58.778626 126.038168,58.778626 C118.955432,58.778626 113.21374,53.0369342 113.21374,45.9541985 C113.21374,38.8714628 118.955432,33.129771 126.038168,33.129771 Z M126.038168,34.129771 C119.507717,34.129771 114.21374,39.4237475 114.21374,45.9541985 C114.21374,52.4846494 119.507717,57.778626 126.038168,57.778626 C132.568619,57.778626 137.862595,52.4846494 137.862595,45.9541985 C137.862595,39.4237475 132.568619,34.129771 126.038168,34.129771 Z" id="椭圆形备份-7" fill="#0C24FF" fill-rule="nonzero"></path>
                <g id="编组-39" transform="translate(30.923664, 48.091603)">
                    <g id="编组-27备份" transform="translate(0.000000, -0.000000)">
                        <mask id="mask-2" fill="white">
                            <use xlink:href="#path-1"></use>
                        </mask>
                        <use id="蒙版" fill="#FFFFFF" xlink:href="#path-1"></use>
                        <mask id="mask-4" fill="white">
                            <use xlink:href="#path-3"></use>
                        </mask>
                        <use id="蒙版" fill="#FFFFFF" xlink:href="#path-3"></use>
                        <g mask="url(#mask-4)" fill="#C3C3C4" fill-rule="nonzero">
                            <g transform="translate(7.480916, 42.748092)">
                                <path d="M81.2900763,0.443120462 C81.8423611,0.443120462 82.2900763,0.890835712 82.2900763,1.44312046 L82.2900763,51.8095327 C82.2900763,52.3618174 81.8423611,52.8095327 81.2900763,52.8095327 L1,52.8095327 C0.44771525,52.8095327 0,52.3618174 0,51.8095327 L0,1.44312046 C0,0.890835712 0.44771525,0.443120462 1,0.443120462 L81.2900763,0.443120462 Z M81.2900763,1.44312046 L1,1.44312046 L1,51.8095327 L81.2900763,51.8095327 L81.2900763,1.44312046 Z" id="矩形备份-6"></path>
                                <polygon id="路径-13" points="1.26822339 1.02597186 81.5375375 51.1117924 81.0081658 51.9601823 0.738851638 1.87436184"></polygon>
                                <polygon id="路径-13" points="81.020874 1.02658425 81.5522036 1.87374945 1.2692023 52.2260689 0.737872729 51.3789037"></polygon>
                            </g>
                        </g>
                        <path d="M94.1145038,0 C94.6667886,0 95.1145038,0.44771525 95.1145038,1 L95.1145038,59.9160305 C95.1145038,60.4683153 94.6667886,60.9160305 94.1145038,60.9160305 L1,60.9160305 C0.44771525,60.9160305 0,60.4683153 0,59.9160305 L0,1 C0,0.44771525 0.44771525,0 1,0 L94.1145038,0 Z M94.1145038,1 L1,1 L1,59.9160305 L94.1145038,59.9160305 L94.1145038,1 Z" id="蒙版" fill="#C3C3C4" fill-rule="nonzero" mask="url(#mask-4)"></path>
                    </g>
                    <g id="编组-27" transform="translate(7.480916, 7.480916)" fill="#C3C3C4" fill-rule="nonzero">
                        <path d="M42.8167939,0 C43.3690786,0 43.8167939,0.44771525 43.8167939,1 L43.8167939,26.7862595 C43.8167939,27.3385443 43.3690786,27.7862595 42.8167939,27.7862595 L1,27.7862595 C0.44771525,27.7862595 0,27.3385443 0,26.7862595 L0,1 C0,0.44771525 0.44771525,0 1,0 L42.8167939,0 Z M42.8167939,1 L1,1 L1,26.7862595 L42.8167939,26.7862595 L42.8167939,1 Z" id="矩形备份-6"></path>
                        <polygon id="路径-13" points="0.798372246 0.10974208 43.5391759 26.6858917 43.0111337 27.5351099 0.270330044 0.95896021"></polygon>
                        <polygon id="路径-13" points="43.0174433 0.110351993 43.5474422 0.958350297 0.799350615 27.6759075 0.269351675 26.8279092"></polygon>
                    </g>
                    <polygon id="直线备份-26" fill="#C3C3C4" fill-rule="nonzero" transform="translate(69.465649, 8.015267) scale(1, -1) translate(-69.465649, -8.015267) " points="83.8587786 7.51526718 83.8587786 8.51526718 55.0725191 8.51526718 55.0725191 7.51526718"></polygon>
                    <polygon id="直线备份-9" fill="#C3C3C4" fill-rule="nonzero" transform="translate(72.671756, 12.958015) scale(1, -1) translate(-72.671756, -12.958015) " points="90.2709924 12.4580153 90.2709924 13.4580153 55.0725191 13.4580153 55.0725191 12.4580153"></polygon>
                    <polygon id="直线备份-10" fill="#C3C3C4" fill-rule="nonzero" transform="translate(69.465649, 17.900763) scale(1, -1) translate(-69.465649, -17.900763) " points="83.8587786 17.4007634 83.8587786 18.4007634 55.0725191 18.4007634 55.0725191 17.4007634"></polygon>
                    <polygon id="直线备份-11" fill="#C3C3C4" fill-rule="nonzero" transform="translate(72.671756, 22.843511) scale(1, -1) translate(-72.671756, -22.843511) " points="90.2709924 22.3435115 90.2709924 23.3435115 55.0725191 23.3435115 55.0725191 22.3435115"></polygon>
                    <polygon id="直线备份-32" fill="#C3C3C4" fill-rule="nonzero" transform="translate(69.465649, 27.786260) scale(1, -1) translate(-69.465649, -27.786260) " points="83.8587786 27.2862595 83.8587786 28.2862595 55.0725191 28.2862595 55.0725191 27.2862595"></polygon>
                    <path d="M72.6717557,32.0610687 L72.6717557,37.4045802 L55.5725191,37.4045802 L55.5725191,32.0610687 L72.6717557,32.0610687 Z M71.671,33.061 L56.572,33.061 L56.572,36.404 L71.671,36.404 L71.671,33.061 Z" id="矩形" fill="#C3C3C4" fill-rule="nonzero"></path>
                </g>
                <path d="M120.038168,11.2557252 C123.549979,11.2557252 126.411318,14.0407214 126.534065,17.5225911 L126.538168,17.7557252 L126.538168,33.129771 L125.538168,33.129771 L125.538168,17.7557252 C125.538168,14.792246 123.194388,12.3761861 120.259375,12.2600924 L120.038168,12.2557252 L91.4379721,12.2557252 L91.4379721,11.2557252 L120.038168,11.2557252 Z" id="路径-12" fill="#0C24FF" fill-rule="nonzero"></path>
                <g id="编组-28" transform="translate(54.435115, 0.000000)">
                    <rect id="矩形" fill="#0C24FF" x="0" y="0" width="54.5038168" height="21.3740458" rx="2"></rect>
                    <g id="编组-25" transform="translate(21.374046, 4.274809)" fill="#FFFFFF" fill-rule="nonzero">
                        <polygon id="直线备份-28" transform="translate(14.961832, 4.809160) scale(1, -1) translate(-14.961832, -4.809160) " points="30.4236641 4.30916031 30.4236641 5.30916031 -0.5 5.30916031 -0.5 4.30916031"></polygon>
                        <polygon id="直线备份-30" transform="translate(12.290076, 0.534351) scale(1, -1) translate(-12.290076, -0.534351) " points="25.0801527 0.034351145 25.0801527 1.03435115 -0.5 1.03435115 -0.5 0.034351145"></polygon>
                        <polygon id="直线备份-29" transform="translate(12.290076, 8.015267) scale(1, -1) translate(-12.290076, -8.015267) " points="25.0801527 7.51526718 25.0801527 8.51526718 -0.5 8.51526718 -0.5 7.51526718"></polygon>
                        <polygon id="直线备份-31" transform="translate(12.290076, 12.290076) scale(1, -1) translate(-12.290076, -12.290076) " points="25.0801527 11.7900763 25.0801527 12.7900763 -0.5 12.7900763 -0.5 11.7900763"></polygon>
                    </g>
                    <g id="close" transform="translate(3.206107, 2.137405)" fill-rule="nonzero">
                        <rect id="矩形" fill="#000000" opacity="0" x="0" y="0" width="17.0992366" height="17.0992366"></rect>
                        <path d="M9.41459924,8.54961832 L13.7979485,3.32466603 C13.8714218,3.23783397 13.8096374,3.10591603 13.6960878,3.10591603 L12.3635496,3.10591603 C12.2850668,3.10591603 12.2099237,3.14098282 12.1581584,3.20109733 L8.54293893,7.51097328 L4.92771947,3.20109733 C4.87762405,3.14098282 4.80248092,3.10591603 4.72232824,3.10591603 L3.38979008,3.10591603 C3.27624046,3.10591603 3.21445611,3.23783397 3.28792939,3.32466603 L7.67127863,8.54961832 L3.28792939,13.7745706 C3.21445611,13.8614027 3.27624046,13.9933206 3.38979008,13.9933206 L4.72232824,13.9933206 C4.80081107,13.9933206 4.8759542,13.9582538 4.92771947,13.8981393 L8.54293893,9.58826336 L12.1581584,13.8981393 C12.2082538,13.9582538 12.2833969,13.9933206 12.3635496,13.9933206 L13.6960878,13.9933206 C13.8096374,13.9933206 13.8714218,13.8614027 13.7979485,13.7745706 L9.41459924,8.54961832 Z" id="路径" fill="#FFFFFF"></path>
                    </g>
                </g>
                <g id="编组-28备份" transform="translate(11.687023, 14.961832)">
                    <rect id="矩形" fill="#FFFFFF" x="0" y="0" width="54.5038168" height="21.3740458" rx="2"></rect>
                    <path d="M52.5038168,0 C53.6083863,0 54.5038168,0.8954305 54.5038168,2 L54.5038168,19.3740458 C54.5038168,20.4786153 53.6083863,21.3740458 52.5038168,21.3740458 L2,21.3740458 C0.8954305,21.3740458 0,20.4786153 0,19.3740458 L0,2 C0,0.8954305 0.8954305,0 2,0 L52.5038168,0 Z M52.5038168,1 L2,1 C1.48716416,1 1.06449284,1.38604019 1.00672773,1.88337887 L1,2 L1,19.3740458 C1,19.8868816 1.38604019,20.309553 1.88337887,20.3673181 L2,20.3740458 L52.5038168,20.3740458 C53.0166526,20.3740458 53.439324,19.9880056 53.4970891,19.4906669 L53.5038168,19.3740458 L53.5038168,2 C53.5038168,1.48716416 53.1177766,1.06449284 52.6204379,1.00672773 L52.5038168,1 Z" id="矩形" fill="#0C24FF" fill-rule="nonzero"></path>
                    <g id="check" transform="translate(3.206107, 2.137405)" fill-rule="nonzero">
                        <rect id="矩形" fill="#000000" opacity="0" x="0" y="0" width="17.0992366" height="17.0992366"></rect>
                        <path d="M15.2290076,3.17270992 L14.0617844,3.17270992 C13.8981393,3.17270992 13.7428435,3.24785305 13.6426527,3.3764313 L6.75787214,12.0980439 L3.45658397,7.91507634 C3.35472328,7.78649809 3.20109733,7.71135496 3.03745229,7.71135496 L1.87022901,7.71135496 C1.75834924,7.71135496 1.69656489,7.83993321 1.76502863,7.92676527 L6.33874046,13.7211355 C6.55248092,13.9916508 6.96326336,13.9916508 7.17867366,13.7211355 L15.334208,3.38645038 C15.4026718,3.30128817 15.3408874,3.17270992 15.2290076,3.17270992 Z" id="路径" fill="#0C24FF"></path>
                    </g>
                    <g id="编组-25" transform="translate(21.374046, 4.274809)" fill="#0C24FF" fill-rule="nonzero">
                        <polygon id="直线备份-28" transform="translate(14.961832, 4.809160) scale(1, -1) translate(-14.961832, -4.809160) " points="30.4236641 4.30916031 30.4236641 5.30916031 -0.5 5.30916031 -0.5 4.30916031"></polygon>
                        <polygon id="直线备份-30" transform="translate(12.290076, 0.534351) scale(1, -1) translate(-12.290076, -0.534351) " points="25.0801527 0.034351145 25.0801527 1.03435115 -0.5 1.03435115 -0.5 0.034351145"></polygon>
                        <polygon id="直线备份-29" transform="translate(12.290076, 8.015267) scale(1, -1) translate(-12.290076, -8.015267) " points="25.0801527 7.51526718 25.0801527 8.51526718 -0.5 8.51526718 -0.5 7.51526718"></polygon>
                        <polygon id="直线备份-31" transform="translate(12.290076, 12.290076) scale(1, -1) translate(-12.290076, -12.290076) " points="25.0801527 11.7900763 25.0801527 12.7900763 -0.5 12.7900763 -0.5 11.7900763"></polygon>
                    </g>
                </g>
                <path d="M95.0458015,76.9465649 C97.9969414,76.9465649 100.389313,79.3389365 100.389313,82.2900763 C100.389313,85.2412162 97.9969414,87.6335878 95.0458015,87.6335878 C92.0946616,87.6335878 89.7022901,85.2412162 89.7022901,82.2900763 C89.7022901,79.3389365 92.0946616,76.9465649 95.0458015,76.9465649 Z M95.0458015,77.9465649 C92.6469464,77.9465649 90.7022901,79.8912212 90.7022901,82.2900763 C90.7022901,84.6889315 92.6469464,86.6335878 95.0458015,86.6335878 C97.4446567,86.6335878 99.389313,84.6889315 99.389313,82.2900763 C99.389313,79.8912212 97.4446567,77.9465649 95.0458015,77.9465649 Z" id="椭圆形备份-8" fill="#0C24FF" fill-rule="nonzero"></path>
                <path d="M21.8053435,36.3358779 L21.8053435,57.9762974 C21.8053435,60.9397765 24.1491235,63.3558365 27.0841364,63.4719302 L27.3053435,63.4762974 L89.0458015,63.4762974 C92.5576122,63.4762974 95.4189521,66.2612936 95.5416985,69.7431632 L95.5458015,69.9762974 L95.5458015,76.9465649 L94.5458015,76.9465649 L94.5458015,69.9762974 C94.5458015,67.0128182 92.2020215,64.5967582 89.2670087,64.4806646 L89.0458015,64.4762974 L27.3053435,64.4762974 C23.7935329,64.4762974 20.932193,61.6913012 20.8094465,58.2094315 L20.8053435,57.9762974 L20.8053435,36.3358779 L21.8053435,36.3358779 Z" id="路径-14" fill="#0C24FF" fill-rule="nonzero"></path>
                <g id="编组-6备份-2" transform="translate(143.340337, 95.229838) rotate(-45.000000) translate(-143.340337, -95.229838) translate(128.340337, 68.229838)" fill="#000000" fill-rule="nonzero">
                    <path d="M14.8806648,0 C23.099029,0 29.7613296,6.66230056 29.7613296,14.8806648 C29.7613296,23.099029 23.099029,29.7613296 14.8806648,29.7613296 C6.66230056,29.7613296 0,23.099029 0,14.8806648 C0,6.66230056 6.66230056,0 14.8806648,0 Z M14.8806648,1 C7.21458531,1 1,7.21458531 1,14.8806648 C1,22.5467443 7.21458531,28.7613296 14.8806648,28.7613296 C22.5467443,28.7613296 28.7613296,22.5467443 28.7613296,14.8806648 C28.7613296,7.21458531 22.5467443,1 14.8806648,1 Z" id="椭圆形"></path>
                    <polygon id="直线备份-7" points="15.3806648 29.2613296 15.3806648 34.3196927 14.3806648 34.3196927 14.3806648 29.2613296"></polygon>
                    <path d="M17.5862402,33.8196927 L17.5862402,53.4351145 L12.1750894,53.4351145 L12.1750894,33.8196927 L17.5862402,33.8196927 Z M16.586,34.819 L13.175,34.819 L13.175,52.435 L16.586,52.435 L16.586,34.819 Z" id="矩形"></path>
                </g>
                <g id="编组-6备份-3" transform="translate(24.503688, 115.441404) scale(-1, 1) rotate(-45.000000) translate(-24.503688, -115.441404) translate(12.503688, 93.941404)" fill="#000000" fill-rule="nonzero">
                    <path d="M11.9045318,0 C18.4792232,0 23.8090637,5.32984045 23.8090637,11.9045318 C23.8090637,18.4792232 18.4792232,23.8090637 11.9045318,23.8090637 C5.32984045,23.8090637 0,18.4792232 0,11.9045318 C0,5.32984045 5.32984045,0 11.9045318,0 Z M11.9045318,1 C5.8821252,1 1,5.8821252 1,11.9045318 C1,17.9269385 5.8821252,22.8090637 11.9045318,22.8090637 C17.9269385,22.8090637 22.8090637,17.9269385 22.8090637,11.9045318 C22.8090637,5.8821252 17.9269385,1 11.9045318,1 Z" id="椭圆形"></path>
                    <polygon id="直线备份-7" points="12.4045318 23.3090637 12.4045318 27.5557542 11.4045318 27.5557542 11.4045318 23.3090637"></polygon>
                    <path d="M14.0689922,27.0557542 L14.0689922,42.7480916 L9.7400715,42.7480916 L9.7400715,27.0557542 L14.0689922,27.0557542 Z M13.068,28.055 L10.74,28.055 L10.74,41.748 L13.068,41.748 L13.068,28.055 Z" id="矩形"></path>
                </g>
            </g>
        </g>
    </g>
</svg>