<svg xmlns="http://www.w3.org/2000/svg" xmlns:xlink="http://www.w3.org/1999/xlink" version="1.1" id="Layer_1" x="0px" y="0px" viewBox="0 0 1080 1080" enable-background="new 0 0 1080 1080" xml:space="preserve">
<path xmlns="http://www.w3.org/2000/svg" opacity="0.22" fill="#2A94F4" d="M828.502,570.57c-28.417-35.628-82.716-40.791-116.828-70.982  c-36.944-32.696-46.55-78.891-78.288-116.656c-13.236-15.75-28.319-38.07-46.323-48.376c-16.217-9.283-33.715-17.383-53.179-18.954  c-24.39-1.969-50.885,7.001-71.091,24.07c-19.882,16.795-34.196,41.096-57.248,52.411c-28.948,14.209-60.048,4.035-88.322,1.967  c-33.056-2.417-67.35,16.715-78.59,48.951c-5.039,14.453-5.057,30.248-2.741,45.378c2.359,15.41,7.354,31.024,17.123,43.402  c10.317,13.073,23.939,23.037,32.995,37.266c10.74,16.873,9.876,39.648,6.345,60.945c-3.532,21.299-9.429,42.902-7.664,63.73  c2.593,30.613,23.057,56.827,51.614,66.116c36.661,11.925,79.528-3.089,118.497-18.579c34.89-13.868,75.193-30.109,111.612-27.509  c38.413,2.742,70.079,28.153,106.584,36.598c46.718,10.807,103.426-4.641,139.269-43.378  C848.109,668.233,857.4,606.802,828.502,570.57z"/>
<g xmlns="http://www.w3.org/2000/svg" opacity="0.55">
	<path fill="#3c8cf8" d="M717.84,482.986l13.656-8.843c5.658-8.149,9.958-16.326,12.847-23.014   c-5.943-1.515-18.241,4.754-18.241,4.754c12.169-7.424,16.55-8.319,20.543-10.732c3.489-10.193,2.179-21.42,2.267-31.03   c-12.644,12.064-16.347,14.188-16.347,14.188c7.997-6.472,12.133-13.433,16.306-18.304c-0.641-23.916-8.269-31.541-8.269-31.541   c-5.909,4.088-17.997,14.962-22.762,18.973c-1.493,11.244-1.286,25.35-1.286,25.35c-1.489-6.408-1.72-15.916-1.65-22.817   c-6.794,5.986-5.63,5.089-10.309,11.059c-1.903,11.477-0.355,31.246-0.355,31.246c-2.278-7.533-3.02-19.645-3.26-26.363   c-7.58,10.859-12.273,21.894-15.437,33.578c1.295,9.799,3.657,19.597,3.657,19.597c-1.935-3.931-3.607-9.366-4.928-14.53   c-3.103,13.389-4.516,27.687-6.189,43.575l2.182,13.547l16.54-6.076c12.529-5.996,22.875-15.884,30.951-26.352L717.84,482.986z"/>
</g>
<g xmlns="http://www.w3.org/2000/svg" opacity="0.55">
	<path fill="#3c8cf8" d="M705.169,528.828l16.163-1.85c8.691-4.784,16.178-10.196,21.74-14.903   c-4.649-3.999-18.452-3.852-18.452-3.852c14.201-1.239,18.522-0.093,23.173-0.48c7.657-7.579,11.475-18.218,15.827-26.787   c-16.69,5.185-20.95,5.441-20.95,5.441c10.041-2.241,16.84-6.638,22.744-9.146c10.059-21.707,6.617-31.929,6.617-31.929   c-7.111,1.035-22.772,5.4-28.824,6.875c-6.336,9.408-12.422,22.135-12.422,22.135c1.515-6.402,5.535-15.021,8.666-21.172   c-8.747,2.341-7.306,2.055-14.151,5.323c-6.807,9.434-14.21,27.83-14.21,27.83c1.309-7.76,6.029-18.939,8.801-25.064   c-11.617,6.357-20.728,14.155-28.756,23.214c-3.197,9.353-5.437,19.179-5.437,19.179c0.015-4.382,0.933-9.993,2.046-15.206   c-8.732,10.613-16.355,22.792-24.917,36.28l-4.069,13.105l17.517,1.911c13.888,0.2,27.552-4.058,39.44-9.844L705.169,528.828z"/>
</g>
<g xmlns="http://www.w3.org/2000/svg" opacity="0.55">
	<path fill="#3c8cf8" d="M355.465,479.249c8.076,10.468,18.422,20.356,30.951,26.352l16.54,6.076l2.182-13.547   c-1.672-15.888-3.085-30.186-6.188-43.575c-1.322,5.164-2.994,10.599-4.928,14.53c0,0,2.362-9.798,3.657-19.597   c-3.163-11.684-7.857-22.719-15.437-33.578c-0.241,6.719-0.982,18.831-3.26,26.363c0,0,1.548-19.77-0.355-31.246   c-4.679-5.97-3.516-5.073-10.309-11.059c0.07,6.901-0.161,16.409-1.65,22.817c0,0,0.207-14.105-1.286-25.35   c-4.765-4.012-16.852-14.885-22.762-18.973c0,0-7.628,7.625-8.269,31.541c4.173,4.871,8.309,11.832,16.306,18.304   c0,0-3.703-2.124-16.347-14.188c0.089,9.61-1.222,20.837,2.267,31.03c3.994,2.414,8.374,3.309,20.543,10.732   c0,0-12.298-6.268-18.241-4.754c2.889,6.688,7.189,14.865,12.847,23.014l13.655,8.843L355.465,479.249z"/>
</g>
<g xmlns="http://www.w3.org/2000/svg" opacity="0.55">
	<path fill="#3c8cf8" d="M367.507,529.889c11.888,5.786,25.551,10.043,39.44,9.844l17.517-1.911l-4.069-13.105   c-8.561-13.488-16.184-25.667-24.917-36.28c1.112,5.214,2.031,10.825,2.046,15.206c0,0-2.24-9.826-5.437-19.179   c-8.028-9.059-17.139-16.857-28.756-23.214c2.771,6.125,7.492,17.304,8.801,25.064c0,0-7.403-18.397-14.21-27.83   c-6.846-3.267-5.405-2.981-14.151-5.323c3.131,6.151,7.151,14.77,8.666,21.172c0,0-6.086-12.726-12.422-22.135   c-6.052-1.475-21.713-5.84-28.824-6.875c0,0-3.442,10.221,6.617,31.929c5.903,2.507,12.703,6.905,22.744,9.146   c0,0-4.261-0.256-20.95-5.441c4.352,8.569,8.17,19.207,15.827,26.787c4.65,0.386,8.972-0.76,23.173,0.48   c0,0-13.803-0.147-18.452,3.852c5.561,4.707,13.049,10.119,21.74,14.903l16.163,1.85L367.507,529.889z"/>
</g>
<ellipse xmlns="http://www.w3.org/2000/svg" fill="#D3D3D3" cx="540.041" cy="734.886" rx="305.595" ry="40.998"/>
<g xmlns="http://www.w3.org/2000/svg">
	<g>
		<path fill="#FFFFFF" d="M694.82,410.905v259.06c0,18.104-14.673,32.786-32.776,32.786H418.047    c-18.104,0-32.786-14.682-32.786-32.786v-259.06c0.186-17.946,14.794-32.442,32.786-32.442h243.997    C680.036,378.463,694.634,392.959,694.82,410.905z"/>
	</g>
	<g>
		<path fill="#3c8cf8" d="M694.82,410.905H385.261c0.186-17.946,14.794-32.442,32.786-32.442h243.997    C680.036,378.463,694.634,392.959,694.82,410.905z"/>
	</g>
	<g>
		<g>
			<path fill="#FFFFFF" d="M424.464,394.684c0-3.307-2.681-5.987-5.988-5.987c-3.307,0-5.988,2.681-5.988,5.987     c0,3.307,2.681,5.988,5.988,5.988C421.783,400.671,424.464,397.991,424.464,394.684z"/>
		</g>
		<g>
			<path fill="#FFFFFF" d="M443.031,394.684c0-3.307-2.681-5.987-5.987-5.987c-3.307,0-5.988,2.681-5.988,5.987     c0,3.307,2.681,5.988,5.988,5.988C440.351,400.671,443.031,397.991,443.031,394.684z"/>
		</g>
		<g>
			<path fill="#FFFFFF" d="M461.599,394.684c0-3.307-2.681-5.987-5.988-5.987c-3.307,0-5.987,2.681-5.987,5.987     c0,3.307,2.681,5.988,5.987,5.988C458.918,400.671,461.599,397.991,461.599,394.684z"/>
		</g>
	</g>
	<g>
		<path fill="#FFFFFF" d="M598.641,400.671H485.769c-3.307,0-5.988-2.681-5.988-5.988l0,0c0-3.307,2.681-5.987,5.988-5.987h112.872    c3.307,0,5.988,2.681,5.988,5.987l0,0C604.628,397.991,601.947,400.671,598.641,400.671z"/>
	</g>
</g>
<g xmlns="http://www.w3.org/2000/svg">
	<path fill="#3c8cf8" d="M654.81,620.29v-11.632c0-7.221-5.854-13.075-13.075-13.075H490.13c-7.221,0-13.075,5.854-13.075,13.075   v35.806c0,7.221,5.854,13.075,13.075,13.075h151.605c7.221,0,13.075-5.854,13.075-13.075v-15.006l16.583,6.164L654.81,620.29z"/>
</g>
<g xmlns="http://www.w3.org/2000/svg">
	<circle fill="#FFFFFF" cx="580.531" cy="644.253" r="3.616"/>
</g>
<g xmlns="http://www.w3.org/2000/svg">
	<circle fill="#FFFFFF" cx="596.004" cy="644.253" r="3.616"/>
</g>
<g xmlns="http://www.w3.org/2000/svg">
	<circle fill="#FFFFFF" cx="611.477" cy="644.253" r="3.616"/>
</g>
<g xmlns="http://www.w3.org/2000/svg">
	<circle fill="#FFFFFF" cx="626.951" cy="644.253" r="3.616"/>
</g>
<g xmlns="http://www.w3.org/2000/svg">
	<path fill="#A8A8A8" d="M516.67,517.517c0,1.46-0.525,2.611-1.577,3.453c-1.051,0.841-2.514,1.261-4.388,1.261   c-1.727,0-3.253-0.324-4.582-0.974v-3.187c1.092,0.487,2.016,0.83,2.772,1.029c0.756,0.199,1.448,0.299,2.075,0.299   c0.752,0,1.33-0.144,1.731-0.432c0.402-0.288,0.604-0.716,0.604-1.284c0-0.317-0.089-0.6-0.266-0.847   c-0.177-0.247-0.438-0.485-0.78-0.714c-0.343-0.229-1.042-0.594-2.097-1.095c-0.989-0.465-1.73-0.911-2.224-1.339   c-0.494-0.428-0.889-0.925-1.184-1.494c-0.295-0.568-0.442-1.232-0.442-1.992c0-1.431,0.485-2.556,1.455-3.375   c0.97-0.819,2.311-1.228,4.022-1.228c0.841,0,1.643,0.1,2.407,0.299s1.562,0.479,2.396,0.841l-1.106,2.667   c-0.863-0.354-1.577-0.601-2.141-0.742c-0.564-0.14-1.12-0.21-1.666-0.21c-0.649,0-1.147,0.151-1.494,0.454   c-0.347,0.303-0.521,0.697-0.521,1.184c0,0.303,0.07,0.566,0.21,0.791c0.14,0.225,0.363,0.443,0.669,0.653   c0.306,0.21,1.031,0.588,2.174,1.134c1.512,0.723,2.549,1.448,3.11,2.175C516.39,515.571,516.67,516.462,516.67,517.517z"/>
	<path fill="#A8A8A8" d="M527.194,522.01l-0.653-1.682h-0.089c-0.568,0.716-1.153,1.212-1.754,1.488   c-0.601,0.277-1.385,0.415-2.352,0.415c-1.188,0-2.123-0.339-2.805-1.018c-0.682-0.679-1.023-1.645-1.023-2.899   c0-1.313,0.459-2.282,1.378-2.905c0.918-0.624,2.303-0.968,4.155-1.035l2.147-0.066v-0.542c0-1.254-0.642-1.881-1.925-1.881   c-0.989,0-2.151,0.299-3.486,0.896l-1.118-2.279c1.424-0.745,3.002-1.118,4.736-1.118c1.66,0,2.932,0.361,3.817,1.084   c0.885,0.723,1.328,1.822,1.328,3.297v8.244H527.194z M526.198,516.278l-1.306,0.044c-0.981,0.03-1.711,0.207-2.191,0.531   c-0.48,0.325-0.719,0.819-0.719,1.483c0,0.952,0.545,1.427,1.638,1.427c0.782,0,1.407-0.225,1.875-0.675   c0.468-0.45,0.703-1.047,0.703-1.792V516.278z"/>
	<path fill="#A8A8A8" d="M531.255,509.638h3.696l2.335,6.96c0.199,0.605,0.336,1.321,0.41,2.146h0.066   c0.081-0.76,0.24-1.475,0.476-2.146l2.291-6.96h3.619l-5.234,13.954c-0.48,1.291-1.164,2.257-2.053,2.899   c-0.889,0.642-1.927,0.963-3.115,0.963c-0.583,0-1.155-0.063-1.715-0.188v-2.678c0.406,0.096,0.849,0.144,1.328,0.144   c0.598,0,1.119-0.183,1.566-0.548c0.446-0.365,0.795-0.917,1.045-1.654l0.199-0.608L531.255,509.638z"/>
	<path fill="#A8A8A8" d="M565.327,522.01h-3.419v-6.982h-6.407v6.982h-3.431v-16.178h3.431v6.341h6.407v-6.341h3.419V522.01z"/>
	<path fill="#A8A8A8" d="M569.002,506.44c0-1.099,0.612-1.649,1.837-1.649s1.837,0.55,1.837,1.649c0,0.524-0.153,0.932-0.459,1.223   c-0.307,0.292-0.766,0.437-1.378,0.437C569.614,508.1,569.002,507.547,569.002,506.44z M572.521,522.01h-3.375v-12.372h3.375   V522.01z"/>
	<path fill="#A8A8A8" d="M575.586,520.427c0-0.62,0.166-1.088,0.498-1.405c0.332-0.317,0.814-0.476,1.449-0.476   c0.612,0,1.086,0.163,1.422,0.487s0.504,0.79,0.504,1.394c0,0.583-0.17,1.042-0.509,1.378c-0.34,0.335-0.813,0.503-1.417,0.503   c-0.619,0-1.1-0.165-1.438-0.493C575.755,521.488,575.586,521.025,575.586,520.427z M578.895,516.643h-2.7l-0.564-10.811h3.829   L578.895,516.643z"/>
</g>
<g xmlns="http://www.w3.org/2000/svg">
	<path fill="#3c8cf8" d="M405.056,585.519c0,0,12.428,28.377,23.533,22.682c11.105-5.695,13.952-9.112,13.952-9.112l4.413,4.129   c0,0-10.678,14.305-20.074,15.766c-9.396,1.461-20.074-2.81-20.074-2.81L405.056,585.519z"/>
	<path fill="#FAB9AF" d="M434.175,606.141c-1.464,0.214-2.908,0.589-3.496,0.614c-0.246,0.01-0.91-0.161-1.106-0.197   c-0.576-0.107-1.451-0.363-1.996-0.148l-2.307,0.863c-1.108,0.436-2.159,0.231-2.594-0.877l0,0c-0.472-1.2,0.338-2.147,1.584-2.477   l1.604-0.631c0.998-0.264,1.78-0.952,2.587-1.595c1.642-1.308,4.037-1.7,5.988-1.834c1.224-0.084,2.435,1.04,3.965,2.625   c0.752,0.779,1.685,2.211,0.33,2.053c-1.135-0.132-3.608-2.378-6.234-0.382c-0.129,0.098-0.442,0.373-0.375,0.561   c0.201,0.558,1.464,0.178,2.165,0.207c0.984,0.041,1.555,0.495,1.607,0.89C435.953,606.228,435.22,605.988,434.175,606.141z"/>
	<g>
		<path fill="#FAB9AF" d="M446.077,602.824c0.594-0.844,1.511-1.338,2.395-1.872c1.797-1.085,2.996-3.195,3.8-4.978    c0.504-1.118-0.129-2.645-1.084-4.63c-0.469-0.975-1.488-2.348-1.811-1.023c-0.271,1.11,0.977,4.21-1.807,5.978    c-0.137,0.087-0.504,0.285-0.656,0.157c-0.454-0.382,0.342-1.435,0.558-2.102c0.303-0.937,0.076-1.63-0.276-1.816    c-0.372-0.197-0.402,0.574-0.908,1.5c-0.709,1.298-1.563,2.522-1.79,3.065c-0.095,0.227-0.165,0.909-0.199,1.106    c-0.1,0.577-0.164,1.486-0.554,1.923"/>
		<path fill="#FAB9AF" d="M442.054,604.734"/>
		<g>
			<g>
				<polygon fill="#FAB9AF" points="412.589,642.695 404.439,585.435 382.454,582.417 371.019,642.281     "/>
				<path fill="#0E538C" d="M395.595,731.42l0.024,6.454c0.005,1.313-0.174,2.62-0.53,3.884l-0.561,1.988      c-0.461,1.632,0.766,3.252,2.462,3.246c4.396-0.016,11.909-0.004,13.845-0.001c0.317,0.001,0.627-0.213,0.655-0.529      c0.163-1.884-5.279-3.146-9.379-4.733c-3.123-1.209-2.956-6.821-2.571-10.099c0.145-1.238-0.887-2.292-2.13-2.189l0,0      C396.382,729.526,395.592,730.388,395.595,731.42z"/>
				<path fill="#0E538C" d="M365.383,729.61l-2.224,7.383c-0.098,0.326-0.245,0.636-0.435,0.918l-1.576,2.341      c-1.001,1.486-0.28,3.517,1.433,4.04c0,0,3.178,1.118,6.455,2.195c3.354,1.102,7.573,0.181,7.573-0.704      c0-1.966-1.834-0.406-4.905-2.459c-1.029-0.688-2.091-1.408-3.038-2.152c-2.643-2.075-0.335-7.328,1.283-10.286      c0.582-1.064-0.036-2.384-1.222-2.637l-0.766-0.163C366.836,727.845,365.715,728.508,365.383,729.61z"/>
				<path fill="#0E538C" d="M388.098,643.249l24.362-2.045c0,0,2.453,17.731-3.704,49.828c-2.888,15.052-8.905,43.815-8.905,43.815      c-1.492,0.653-3.008,0.817-4.552,0.432c0,0-0.457-12.687-0.736-26.351c-0.268-13.104-0.34-27.106-1.175-31.687      C391.681,667.883,388.098,643.249,388.098,643.249z"/>
				<path fill="#0E538C" d="M393.127,643.558c2.515,13.499,8.134,33.684-2.689,52.647c-10.823,18.963-22.191,38.677-22.191,38.677      c-1.465,0.06-2.793-0.471-4.027-1.408c0,0,1.898-8.597,4.641-18.634c3.138-11.483,7.113-24.99,5.981-32.033      c-2.123-13.199-4.56-30.777-3.822-39.313C371.758,634.957,391.804,636.46,393.127,643.558z"/>
				<path fill="#FFFFFF" d="M413.43,641.237l-8.991-55.802l-21.985-3.018l-11.815,58.923c-0.222,1.107,0.495,2.183,1.605,2.393      c4.093,0.776,13.967,2.396,25.016,2.396c8.249,0,12.884-1.604,14.993-2.62C413.108,643.098,413.581,642.173,413.43,641.237z"/>
				<path fill="#3c8cf8" d="M389.323,585.893c0,4.02-0.731,8.001-2.104,11.779c-2.686,7.391-6.715,21.368-4.321,33.681      c3.448,17.731,7.881,24.899,2.134,29.032c-5.746,4.133-16.767-2.763-17.085-5.061c-0.318-2.299,2.145-30.534,4.936-42.767      c2.791-12.233,10.609-29.819,10.609-29.819l3.312,0.354C388.236,583.244,389.323,584.452,389.323,585.893L389.323,585.893z"/>
				<path fill="#3c8cf8" d="M398.475,584.616c0,0,3.813,8.241,2.483,20.08c-1.33,11.839-4.411,47.892,6.362,53.336      c3.411,1.724,11.202-5.91,11.202-8.743s-2.6-12.313-5.064-20.933c-2.464-8.62-8.402-42.837-8.402-42.837L398.475,584.616z"/>
				<g>
					<path fill="#FAB9AF" d="M395.406,559.077c-4.907,0-6.737,3.493-6.831,9.954c-0.035,2.42,1.053,4.817,1.93,6.348       c0.651,1.137,0.829,2.484,0.458,3.741l-1.077,3.647c-0.733,3.383,0.874,5.238,3.246,5.912c1.175,0.334,2.583,0.075,3.608-0.588       c1.22-0.788,1.32-2.483,1.093-3.918l-0.278-1.04c-0.375-1.401,0.437-2.911,1.854-3.22c3.778-0.826,4.319-4.765,5.331-10.881       C405.794,562.655,400.312,559.077,395.406,559.077z"/>
					<path fill="#0E538C" d="M406.831,556.239l-2.814,0.856c-1.034,0.314-2.137,0.321-3.175,0.02l-5.618-1.63       c-3.403,0-9.023,1.922-8.313,6.832l0.627,3.473c0.25,1.387,1.407,2.425,2.812,2.546c0,0,0,0,0,0       c0.13,0.48,0.566,0.813,1.063,0.813c0.608,0,1.101-0.493,1.101-1.101l0,0c0-1.566,1.1-2.903,2.628-3.246       c1.874-0.421,3.877-0.521,5.972,0.042c3.905,1.049,8.022-1.371,8.412-5.395c0.025-0.255,0.037-0.514,0.037-0.776       C409.564,557.05,408.223,555.855,406.831,556.239z"/>
					<path fill="#FAB9AF" d="M391.28,569.15c0,1.498-0.558,2.712-2,2.712c-1.442,0-2.368-2.06-2.368-3.558       c0-1.498,0.926-1.867,2.368-1.867C390.722,566.437,391.28,567.651,391.28,569.15z"/>
				</g>
			</g>
			<path fill="#3c8cf8" d="M390.683,575.726c0,0,3.665,5.038,8.225,4.355c0,0-0.947,0.453-1.177,1.189     C397.73,581.27,393.399,580.95,390.683,575.726z"/>
		</g>
		<path fill="#3c8cf8" d="M383.492,582.737c0,0-1.572,12.224,14.715,16.495c16.287,4.271,29.1,3.172,29.1,3.172v5.37    c0,0-27.207,6.549-43.857-1.139S376.828,583.625,383.492,582.737z"/>
		<polygon fill="#0E538C" points="444,584.67 450.976,584.67 450.229,598.004 443.182,597.826   "/>
		<polygon fill="#0E538C" points="444.623,585.519 450.14,585.44 449.588,593.36 449.535,596.563 443.983,596.474   "/>
		<path fill="#FAB9AF" d="M450.44,594.235c0,0-0.959-0.929-1.386-0.36c-0.427,0.57,1.602,3.31,1.602,3.31l0.32-2.776L450.44,594.235    z"/>
		<path fill="#FAB9AF" d="M443.713,589.285c0,0,1.942,0.711,1.818,2.384c-0.125,1.673-1.353,3.933-2.474,3.31    S443.266,589.322,443.713,589.285z"/>
	</g>
</g>
<rect xmlns="http://www.w3.org/2000/svg" x="711.154" y="661.583" transform="matrix(0.9025 0.4306 -0.4306 0.9025 363.791 -247.8004)" opacity="0.22" fill="#2A94F4" width="36.27" height="36.27"/>
<rect xmlns="http://www.w3.org/2000/svg" x="244.941" y="517.719" transform="matrix(0.9025 0.4306 -0.4306 0.9025 256.3968 -61.058)" opacity="0.41" fill="#2A94F4" width="36.27" height="36.27"/>
<circle xmlns="http://www.w3.org/2000/svg" opacity="0.22" fill="#2A94F4" cx="738.637" cy="599.445" r="14.829"/>
<circle xmlns="http://www.w3.org/2000/svg" opacity="0.22" fill="#2A94F4" cx="816.765" cy="696.977" r="14.829"/>
<circle xmlns="http://www.w3.org/2000/svg" opacity="0.22" fill="#2A94F4" cx="329.616" cy="555.485" r="14.829"/>
<ellipse xmlns="http://www.w3.org/2000/svg" fill="#F2F2F2" cx="551.099" cy="729.177" rx="120.118" ry="5.709"/>
</svg>